<mxfile host="app.diagrams.net" modified="2024-05-24T12:48:55.743Z" agent="Mozilla/5.0 (Windows NT 10.0; Win64; x64; rv:125.0) Gecko/20100101 Firefox/125.0" etag="Mw5HNi4t6JNuWibJIhKD" version="24.4.2" type="github">
  <diagram name="Page-1" id="QOJXwWfc9AL5vu__BLLa">
    <mxGraphModel dx="1063" dy="943" grid="1" gridSize="10" guides="1" tooltips="1" connect="1" arrows="1" fold="1" page="1" pageScale="1" pageWidth="1100" pageHeight="850" math="0" shadow="0">
      <root>
        <mxCell id="0" />
        <mxCell id="1" parent="0" />
        <mxCell id="rFNoJJHTW-y8DcR4cha0-1" value="Actif" style="rounded=1;whiteSpace=wrap;html=1;arcSize=40;fontColor=#000000;fillColor=#ffffc0;strokeColor=#ff0000;" parent="1" vertex="1">
          <mxGeometry x="570" y="290" width="120" height="40" as="geometry" />
        </mxCell>
        <mxCell id="rFNoJJHTW-y8DcR4cha0-3" value="Inactif" style="rounded=1;whiteSpace=wrap;html=1;arcSize=40;fontColor=#000000;fillColor=#ffffc0;strokeColor=#ff0000;" parent="1" vertex="1">
          <mxGeometry x="160" y="190" width="120" height="40" as="geometry" />
        </mxCell>
        <mxCell id="5ztN6cws-PUiibybhkh--14" style="edgeStyle=orthogonalEdgeStyle;rounded=0;orthogonalLoop=1;jettySize=auto;html=1;exitX=0;exitY=0.25;exitDx=0;exitDy=0;entryX=0.45;entryY=1.075;entryDx=0;entryDy=0;entryPerimeter=0;curved=1;" edge="1" parent="1" source="5ztN6cws-PUiibybhkh--2" target="rFNoJJHTW-y8DcR4cha0-3">
          <mxGeometry relative="1" as="geometry">
            <mxPoint x="250" y="410" as="targetPoint" />
          </mxGeometry>
        </mxCell>
        <mxCell id="5ztN6cws-PUiibybhkh--2" value="finishing" style="rounded=1;whiteSpace=wrap;html=1;arcSize=40;fontColor=#000000;fillColor=#ffffc0;strokeColor=#ff0000;" vertex="1" parent="1">
          <mxGeometry x="260" y="470" width="120" height="40" as="geometry" />
        </mxCell>
        <mxCell id="5ztN6cws-PUiibybhkh--4" value="" style="endArrow=classicThin;endFill=1;endSize=12;html=1;rounded=0;exitX=0.558;exitY=0.95;exitDx=0;exitDy=0;exitPerimeter=0;entryX=0.75;entryY=1;entryDx=0;entryDy=0;edgeStyle=orthogonalEdgeStyle;curved=1;" edge="1" parent="1" source="5ztN6cws-PUiibybhkh--2" target="rFNoJJHTW-y8DcR4cha0-1">
          <mxGeometry width="160" relative="1" as="geometry">
            <mxPoint x="400" y="580" as="sourcePoint" />
            <mxPoint x="630" y="340" as="targetPoint" />
            <Array as="points">
              <mxPoint x="327" y="580" />
              <mxPoint x="660" y="580" />
            </Array>
          </mxGeometry>
        </mxCell>
        <mxCell id="5ztN6cws-PUiibybhkh--5" value="porte ouverte &amp;amp; garage fermé" style="text;html=1;align=center;verticalAlign=middle;resizable=0;points=[];autosize=1;strokeColor=none;fillColor=none;" vertex="1" parent="1">
          <mxGeometry x="450" y="580" width="180" height="30" as="geometry" />
        </mxCell>
        <mxCell id="5ztN6cws-PUiibybhkh--9" value="" style="endArrow=classicThin;endFill=1;endSize=12;html=1;rounded=0;entryX=0.417;entryY=1.025;entryDx=0;entryDy=0;entryPerimeter=0;exitX=0.858;exitY=1.05;exitDx=0;exitDy=0;curved=1;exitPerimeter=0;edgeStyle=orthogonalEdgeStyle;" edge="1" parent="1" source="5ztN6cws-PUiibybhkh--2" target="rFNoJJHTW-y8DcR4cha0-1">
          <mxGeometry width="160" relative="1" as="geometry">
            <mxPoint x="380" y="510" as="sourcePoint" />
            <mxPoint x="630" y="390" as="targetPoint" />
            <Array as="points">
              <mxPoint x="363" y="540" />
              <mxPoint x="620" y="540" />
            </Array>
          </mxGeometry>
        </mxCell>
        <mxCell id="5ztN6cws-PUiibybhkh--10" value="" style="ellipse;html=1;shape=startState;fillColor=#000000;strokeColor=#ff0000;" vertex="1" parent="1">
          <mxGeometry x="205" y="90" width="30" height="30" as="geometry" />
        </mxCell>
        <mxCell id="5ztN6cws-PUiibybhkh--11" value="" style="edgeStyle=orthogonalEdgeStyle;html=1;verticalAlign=bottom;endArrow=open;endSize=8;strokeColor=#ff0000;rounded=0;entryX=0.5;entryY=0;entryDx=0;entryDy=0;" edge="1" source="5ztN6cws-PUiibybhkh--10" parent="1" target="rFNoJJHTW-y8DcR4cha0-3">
          <mxGeometry relative="1" as="geometry">
            <mxPoint x="280" y="180" as="targetPoint" />
          </mxGeometry>
        </mxCell>
        <mxCell id="5ztN6cws-PUiibybhkh--15" value="garage ouvert / mode nuit" style="text;align=center;fontStyle=0;verticalAlign=middle;spacingLeft=3;spacingRight=3;strokeColor=none;rotatable=0;points=[[0,0.5],[1,0.5]];portConstraint=eastwest;html=1;" vertex="1" parent="1">
          <mxGeometry x="430" y="510" width="80" height="26" as="geometry" />
        </mxCell>
        <mxCell id="5ztN6cws-PUiibybhkh--17" style="edgeStyle=orthogonalEdgeStyle;rounded=0;orthogonalLoop=1;jettySize=auto;html=1;exitX=0;exitY=0.25;exitDx=0;exitDy=0;entryX=0.617;entryY=0.025;entryDx=0;entryDy=0;entryPerimeter=0;curved=1;" edge="1" parent="1" source="rFNoJJHTW-y8DcR4cha0-1" target="5ztN6cws-PUiibybhkh--2">
          <mxGeometry relative="1" as="geometry" />
        </mxCell>
        <mxCell id="5ztN6cws-PUiibybhkh--18" value="porte fermée" style="text;align=center;fontStyle=0;verticalAlign=middle;spacingLeft=3;spacingRight=3;strokeColor=none;rotatable=0;points=[[0,0.5],[1,0.5]];portConstraint=eastwest;html=1;" vertex="1" parent="1">
          <mxGeometry x="376" y="285" width="80" height="26" as="geometry" />
        </mxCell>
        <mxCell id="5ztN6cws-PUiibybhkh--22" value="Timer" style="text;align=center;fontStyle=1;verticalAlign=middle;spacingLeft=3;spacingRight=3;strokeColor=none;rotatable=0;points=[[0,0.5],[1,0.5]];portConstraint=eastwest;html=1;" vertex="1" parent="1">
          <mxGeometry x="130" y="444" width="80" height="26" as="geometry" />
        </mxCell>
        <mxCell id="5ztN6cws-PUiibybhkh--23" value="" style="endArrow=none;endFill=0;html=1;rounded=0;exitX=0.908;exitY=0.075;exitDx=0;exitDy=0;startArrow=classicThin;startFill=1;edgeStyle=orthogonalEdgeStyle;curved=1;exitPerimeter=0;entryX=0;entryY=0.75;entryDx=0;entryDy=0;" edge="1" parent="1" source="5ztN6cws-PUiibybhkh--2" target="rFNoJJHTW-y8DcR4cha0-1">
          <mxGeometry width="160" relative="1" as="geometry">
            <mxPoint x="460" y="480" as="sourcePoint" />
            <mxPoint x="580" y="330" as="targetPoint" />
            <Array as="points">
              <mxPoint x="369" y="320" />
            </Array>
          </mxGeometry>
        </mxCell>
        <mxCell id="5ztN6cws-PUiibybhkh--24" value="garage fermé" style="text;align=center;fontStyle=0;verticalAlign=middle;spacingLeft=3;spacingRight=3;strokeColor=none;rotatable=0;points=[[0,0.5],[1,0.5]];portConstraint=eastwest;html=1;" vertex="1" parent="1">
          <mxGeometry x="419" y="350" width="80" height="30" as="geometry" />
        </mxCell>
        <mxCell id="5ztN6cws-PUiibybhkh--25" value="garage ouvert / mode nuit" style="html=1;verticalAlign=bottom;endArrow=block;curved=1;rounded=0;entryX=0.5;entryY=0;entryDx=0;entryDy=0;edgeStyle=orthogonalEdgeStyle;" edge="1" parent="1" target="rFNoJJHTW-y8DcR4cha0-1">
          <mxGeometry width="80" relative="1" as="geometry">
            <mxPoint x="280" y="200" as="sourcePoint" />
            <mxPoint x="360" y="200" as="targetPoint" />
          </mxGeometry>
        </mxCell>
        <mxCell id="5ztN6cws-PUiibybhkh--26" value="porte ouverte &amp;amp; garage fermé" style="html=1;verticalAlign=bottom;endArrow=block;curved=1;rounded=0;exitX=0.883;exitY=-0.025;exitDx=0;exitDy=0;exitPerimeter=0;entryX=0.817;entryY=-0.05;entryDx=0;entryDy=0;entryPerimeter=0;edgeStyle=orthogonalEdgeStyle;" edge="1" parent="1" source="rFNoJJHTW-y8DcR4cha0-3" target="rFNoJJHTW-y8DcR4cha0-1">
          <mxGeometry width="80" relative="1" as="geometry">
            <mxPoint x="310" y="160" as="sourcePoint" />
            <mxPoint x="390" y="160" as="targetPoint" />
            <Array as="points">
              <mxPoint x="266" y="120" />
              <mxPoint x="668" y="120" />
            </Array>
          </mxGeometry>
        </mxCell>
      </root>
    </mxGraphModel>
  </diagram>
</mxfile>
